<?xml version="1.0" encoding="UTF-8"?>
<svg version="1.1" xmlns="http://www.w3.org/2000/svg" width="1024" height="1024">
<path d="M0 0 C337.92 0 675.84 0 1024 0 C1024 337.92 1024 675.84 1024 1024 C686.08 1024 348.16 1024 0 1024 C0 686.08 0 348.16 0 0 Z " fill="#F7F7F9" transform="translate(0,0)"/>
<path d="M0 0 C-127.05 127.05 -254.1 254.1 -385 385 C-402.92857143 376.03571429 -402.92857143 376.03571429 -411.375 371.125 C-421.13677602 365.52574195 -431.03901415 360.23350383 -441 355 C-451.53312928 349.46383912 -461.97807148 343.82471593 -472.30078125 337.90234375 C-480.44161338 333.25707577 -488.71046668 328.8718573 -497 324.5 C-507.16162752 319.14061498 -517.23047954 313.66603488 -527.19921875 307.953125 C-535.37556388 303.29410746 -543.67722193 298.88960991 -552 294.5 C-562.16159881 289.14055699 -572.23047681 283.66603645 -582.19921875 277.953125 C-590.37557641 273.29410033 -598.67733731 268.88984903 -607 264.5 C-617.37388412 259.02721737 -627.66566449 253.44778304 -637.85180664 247.63012695 C-647.82053846 241.93900572 -657.90465229 236.46254095 -668 231 C-666.64979245 228.29958489 -665.49117925 228.27843234 -662.6628418 227.31445312 C-661.25988358 226.83015587 -661.25988358 226.83015587 -659.82858276 226.33607483 C-658.79589264 225.98798264 -657.76320251 225.63989044 -656.69921875 225.28125 C-655.62189484 224.91152573 -654.54457092 224.54180145 -653.43460083 224.16087341 C-649.85450048 222.93384457 -646.27099735 221.71706855 -642.6875 220.5 C-640.17965537 219.64215178 -637.67204126 218.78366407 -635.16479492 217.92407227 C-630.63434832 216.37147844 -626.10316951 214.8210615 -621.57099247 213.27352619 C-610.70170059 209.56160037 -599.84804677 205.80491222 -588.99649048 202.04150391 C-583.62983724 200.18069239 -578.26210402 198.32300077 -572.89453125 196.46484375 C-570.74690209 195.72120718 -568.59927839 194.97755485 -566.45166016 194.23388672 C-556.71876123 190.86376426 -546.98546176 187.49479891 -537.25219727 184.12573242 C-534.00340443 183.00117843 -530.75462899 181.87657421 -527.50585938 180.75195312 C-517.72838859 177.36732029 -507.95085181 173.98287865 -498.17300415 170.59933472 C-475.94581093 162.90778115 -453.72020189 155.21173027 -431.5 147.5 C-408.18725651 139.40909289 -384.86842329 131.33583676 -361.54833984 123.26611328 C-351.78096939 119.88612901 -342.01398872 116.5050187 -332.24697876 113.12399292 C-326.83133515 111.24928245 -321.4156663 109.37464492 -316 107.5 C-313.83333321 106.75000035 -311.66666655 106.00000035 -309.5 105.25 C-270.5 91.75 -231.5 78.25 -192.5 64.75 C-190.89131798 64.19314766 -190.89131798 64.19314766 -189.25013733 63.62504578 C-187.08301435 62.874889 -184.91588992 62.12473641 -182.74876404 61.37458801 C-177.33906705 59.5020211 -171.92939514 57.62938182 -166.51977539 55.7565918 C-156.6866376 52.35247684 -146.8533035 48.94893383 -137.01905823 45.54801941 C-116.64597935 38.50249234 -96.27383632 31.45466465 -75.92190552 24.34823608 C-73.34010404 23.44713438 -70.75788418 22.54724195 -68.17553711 21.64770508 C-59.44586672 18.60568705 -50.7208208 15.55129117 -42.00346375 12.47413635 C-37.44924076 10.86823893 -32.89247588 9.26963588 -28.33529663 7.67214966 C-26.12370497 6.89491252 -23.91325847 6.11440865 -21.70401001 5.33053589 C-18.63884853 4.24331763 -15.5699647 3.16731637 -12.5 2.09375 C-11.12046394 1.59972435 -11.12046394 1.59972435 -9.71305847 1.09571838 C-8.86931168 0.80309616 -8.02556488 0.51047394 -7.15625 0.20898438 C-6.42212891 -0.04999634 -5.68800781 -0.30897705 -4.93164062 -0.57580566 C-3 -1 -3 -1 0 0 Z " fill="#000000" transform="translate(820,207)"/>
<path d="M0 0 C1 2 1 2 0.35722351 4.32823181 C-0.18178841 5.78985497 -0.18178841 5.78985497 -0.73168945 7.28100586 C-1.13348923 8.38513321 -1.535289 9.48926056 -1.94926453 10.62684631 C-2.39526505 11.83151047 -2.84126556 13.03617462 -3.30078125 14.27734375 C-4.23879307 16.84879152 -5.17110794 19.42229807 -6.10400391 21.99560547 C-6.34525466 22.65883725 -6.58650541 23.32206903 -6.8350668 24.00539875 C-9.31437459 30.83270356 -11.68697148 37.69564941 -14.04296875 44.56640625 C-14.45946686 45.77900116 -14.87596497 46.99159607 -15.30508423 48.24093628 C-16.378595 51.36828716 -17.45094588 54.4960327 -18.52285767 57.62393188 C-20.59882591 63.67892663 -22.68058015 69.73193712 -24.76171875 75.78515625 C-24.98999737 76.44927647 -25.21827599 77.11339668 -25.45347214 77.79764175 C-29.43427666 89.37730414 -33.45408723 100.94294281 -37.5 112.5 C-43.55964243 129.81287141 -49.53714795 147.15361757 -55.5 164.5 C-61.75021971 182.68235643 -68.0247497 200.85555571 -74.37597656 219.00292969 C-80.14148354 235.4821916 -85.82451242 251.98958229 -91.5 268.5 C-97.75021971 286.68235643 -104.0247497 304.85555571 -110.37597656 323.00292969 C-116.14148354 339.4821916 -121.82451242 355.98958229 -127.5 372.5 C-133.75021971 390.68235643 -140.0247497 408.85555571 -146.37597656 427.00292969 C-152.37439906 444.14792245 -158.28316616 461.32353254 -164.18782425 478.50097275 C-169.90002822 495.11807144 -175.63142898 511.7279124 -181.4375 528.3125 C-187.93696429 546.87823431 -194.33057135 565.47981955 -200.71557999 584.0851326 C-207.56595291 604.04636883 -214.45174968 623.99441722 -221.43359375 643.91015625 C-224.3564469 652.251895 -227.24382153 660.60120258 -230 669 C-232.56669964 666.6806591 -234.06628188 664.3153054 -235.6796875 661.265625 C-236.18918945 660.31171875 -236.69869141 659.3578125 -237.22363281 658.375 C-238.04105957 656.828125 -238.04105957 656.828125 -238.875 655.25 C-243.22863061 647.10308295 -247.66012503 639.01607909 -252.25 631 C-257.91255198 621.07880584 -263.27380177 611.0125087 -268.60241699 600.90991211 C-273.11167567 592.3658955 -277.69574694 583.88317895 -282.5 575.5 C-288.08833568 565.74863649 -293.36112055 555.84738868 -298.60351562 545.90771484 C-303.11241178 537.3644378 -307.69615681 528.88246375 -312.5 520.5 C-318.08833568 510.74863649 -323.36112055 500.84738868 -328.60351562 490.90771484 C-333.11241178 482.3644378 -337.69615681 473.88246375 -342.5 465.5 C-347.69615709 456.43296831 -352.62539132 447.24216938 -357.5 438 C-363.53878092 426.55116504 -369.73411755 415.2137654 -376.16796875 403.98046875 C-376.62606934 403.17270996 -377.08416992 402.36495117 -377.55615234 401.53271484 C-378.59976525 399.70206887 -379.65945078 397.8805539 -380.72900391 396.06494141 C-381.28894043 395.09089355 -381.84887695 394.1168457 -382.42578125 393.11328125 C-382.94180908 392.23067627 -383.45783691 391.34807129 -383.98950195 390.4387207 C-385.16458595 387.60279075 -385.00697233 386.82377101 -384 384 C-382.01647033 381.730726 -380.01995818 379.62332059 -377.87988186 377.51073837 C-377.23039252 376.8577875 -376.58090318 376.20483663 -375.91173235 375.53209937 C-373.71544644 373.3278204 -371.50854849 371.13447731 -369.30162048 368.94085693 C-367.71619272 367.35412195 -366.13142394 365.7667283 -364.5472613 364.17873025 C-360.17805141 359.80278708 -355.79949955 355.43629533 -351.41942632 351.07122946 C-347.18693068 346.85032386 -342.96146839 342.62239262 -338.73584856 338.39460617 C-330.0895513 329.74436406 -321.43627914 321.10113119 -312.77903557 312.4618454 C-304.2049901 303.90553966 -295.63404374 295.34614912 -287.06723213 286.7826004 C-286.53494371 286.2505182 -286.00265528 285.71843599 -285.45423691 285.17023009 C-282.75112458 282.46813273 -280.04806765 279.76597996 -277.34503204 277.06380585 C-258.1900358 257.91511397 -239.02809068 238.77338965 -219.86206055 219.63574219 C-201.2403785 201.04160493 -182.6218439 182.44432534 -164.00756836 163.84277344 C-163.43398242 163.26958207 -162.86039647 162.69639071 -162.26942914 162.10582991 C-156.50934488 156.34970115 -150.74932464 150.59350836 -144.98935128 144.83726863 C-133.25519903 133.1107254 -121.52061958 121.38460971 -109.78578186 109.65875244 C-108.97642618 108.85001456 -108.97642618 108.85001456 -108.15071987 108.02493854 C-72.10763416 72.00946353 -36.05455978 36.00398807 0 0 Z " fill="#000000" transform="translate(834,220)"/>
</svg>
